<svg width="100" height="68" viewBox="0 0 100 68" fill="none" xmlns="http://www.w3.org/2000/svg">
<g filter="url(#filter0_di_512_1401)">
<path fill-rule="evenodd" clip-rule="evenodd" d="M12.7143 42.8571H7.14286V60H24.2857V42.8571H18.7143C18.7143 28.5548 28.3171 16.4854 41.4286 12.7592V17.1429H58.5714V12.7592C71.683 16.4854 81.2857 28.5528 81.2857 42.8572L75.7143 42.8571V60H92.8572V42.8571L87.2857 42.8572C87.2857 29.7448 80.5187 18.2184 70.2903 11.5715H92.8572C94.514 11.5715 95.8572 10.2283 95.8572 8.57146C95.8572 6.91461 94.514 5.57146 92.8572 5.57146H58.5714V0H41.4286V5.57146H7.14286C5.48601 5.57146 4.14286 6.91461 4.14286 8.57146C4.14286 10.2283 5.48601 11.5715 7.14286 11.5715H29.7102C19.4815 18.2188 12.7143 29.7462 12.7143 42.8571Z" fill="#D22A28"/>
</g>
<defs>
<filter id="filter0_di_512_1401" x="0.14286" y="0" width="99.7143" height="68" filterUnits="userSpaceOnUse" color-interpolation-filters="sRGB">
<feFlood flood-opacity="0" result="BackgroundImageFix"/>
<feColorMatrix in="SourceAlpha" type="matrix" values="0 0 0 0 0 0 0 0 0 0 0 0 0 0 0 0 0 0 127 0" result="hardAlpha"/>
<feOffset dy="4"/>
<feGaussianBlur stdDeviation="2"/>
<feComposite in2="hardAlpha" operator="out"/>
<feColorMatrix type="matrix" values="0 0 0 0 0 0 0 0 0 0 0 0 0 0 0 0 0 0 0.25 0"/>
<feBlend mode="normal" in2="BackgroundImageFix" result="effect1_dropShadow_512_1401"/>
<feBlend mode="normal" in="SourceGraphic" in2="effect1_dropShadow_512_1401" result="shape"/>
<feColorMatrix in="SourceAlpha" type="matrix" values="0 0 0 0 0 0 0 0 0 0 0 0 0 0 0 0 0 0 127 0" result="hardAlpha"/>
<feOffset dy="4"/>
<feGaussianBlur stdDeviation="2"/>
<feComposite in2="hardAlpha" operator="arithmetic" k2="-1" k3="1"/>
<feColorMatrix type="matrix" values="0 0 0 0 0 0 0 0 0 0 0 0 0 0 0 0 0 0 0.25 0"/>
<feBlend mode="normal" in2="shape" result="effect2_innerShadow_512_1401"/>
</filter>
</defs>
</svg>
