<svg width="107" height="52" viewBox="0 0 107 52" fill="none" xmlns="http://www.w3.org/2000/svg">
<path d="M6.94108 38.4096H15.5484C15.0884 37.5686 14.4157 36.8647 13.5982 36.369C12.7612 35.8537 11.7964 35.5865 10.8149 35.5982C10.0853 35.594 9.36275 35.7411 8.69227 36.0303C7.37919 36.5998 6.33421 37.6551 5.77363 38.9777C5.49063 39.6532 5.34485 40.3787 5.34485 41.1117C5.34485 41.8446 5.49063 42.5701 5.77363 43.2456C6.33421 44.5682 7.37919 45.6235 8.69227 46.1931C9.36275 46.4823 10.0853 46.6294 10.8149 46.6252H19.1543L13.768 51.984H10.8149C9.36813 51.9936 7.93484 51.7039 6.60411 51.1331C4.00618 50.0356 1.93927 47.9587 0.846428 45.3475C0.287731 44.0069 0 42.5679 0 41.1143C0 39.6608 0.287731 38.2218 0.846428 36.8812C1.93927 34.27 4.00618 32.193 6.60411 31.0956C7.93703 30.5333 9.36806 30.2437 10.8136 30.2437C12.2591 30.2437 13.6901 30.5333 15.0231 31.0956C17.6195 32.1943 19.6852 34.2709 20.7781 36.8812C21.3462 38.219 21.6352 39.6598 21.6272 41.1143V43.7631H12.322L6.94108 38.4096Z" fill="white"/>
<path d="M27.8149 30.3514V51.984H22.4897V35.6516L27.8149 30.3514Z" fill="white"/>
<path d="M48.7148 51.9841H43.4426V40.357C43.4465 39.7302 43.3228 39.1093 43.0791 38.5325C42.8478 37.9794 42.5096 37.4781 42.0841 37.0574C41.6552 36.6397 41.1533 36.3051 40.6036 36.0704C40.0385 35.8277 39.4298 35.7042 38.8152 35.7077C38.192 35.7029 37.5744 35.8264 37.0004 36.0704C36.4479 36.3073 35.9421 36.6416 35.5066 37.0574C35.0747 37.4754 34.7317 37.9773 34.4983 38.5325C34.2547 39.1093 34.131 39.7302 34.1348 40.357V51.9841H28.8627V40.357C28.8557 39.0232 29.1212 37.7022 29.6428 36.4759C30.6594 34.075 32.5612 32.1632 34.9494 31.1411C36.7682 30.3624 38.7778 30.1511 40.7175 30.5344C42.6573 30.9178 44.4377 31.8781 45.8279 33.291C46.7283 34.2152 47.4483 35.3009 47.9506 36.4919C48.4722 37.7183 48.7377 39.0392 48.7307 40.373L48.7148 51.9841Z" fill="white"/>
<path d="M55.3322 51.9839L50.0043 46.5771H60.9811C61.3468 46.5808 61.6993 46.44 61.9628 46.185C62.0943 46.0624 62.1992 45.9138 62.2709 45.7486C62.3427 45.5834 62.3797 45.405 62.3797 45.2247C62.3797 45.0444 62.3427 44.8661 62.2709 44.7009C62.1992 44.5356 62.0943 44.3871 61.9628 44.2645C61.6993 44.0095 61.3468 43.8687 60.9811 43.8724H56.1388C55.2508 43.8763 54.3716 43.6946 53.5571 43.3389C51.9507 42.6489 50.6726 41.3602 49.9911 39.7432C49.646 38.9121 49.4683 38.0205 49.4683 37.1198C49.4683 36.2192 49.646 35.3276 49.9911 34.4965C50.3301 33.6938 50.8192 32.9639 51.4318 32.3465C52.0432 31.7319 52.763 31.2372 53.5545 30.8875C54.3679 30.5283 55.2478 30.3465 56.1361 30.354H61.793V35.7635H56.1388C55.9614 35.761 55.7854 35.7942 55.6211 35.8613C55.4567 35.9284 55.3074 36.0279 55.182 36.154C55.0566 36.28 54.9576 36.4301 54.8909 36.5953C54.8242 36.7606 54.7911 36.9375 54.7936 37.1158C54.7894 37.4836 54.9295 37.8382 55.1836 38.1028C55.3037 38.2373 55.4511 38.3443 55.6159 38.4165C55.7807 38.4888 55.959 38.5246 56.1388 38.5216H60.9811C61.882 38.5171 62.7743 38.6987 63.6026 39.055C65.2115 39.7381 66.4938 41.0224 67.1792 42.6373C67.5331 43.4562 67.7138 44.34 67.7099 45.2327C67.7145 46.1385 67.5339 47.0355 67.1792 47.8681C66.8434 48.6719 66.3549 49.4022 65.7411 50.018C65.127 50.6339 64.401 51.1256 63.6026 51.4664C62.7738 51.8214 61.8819 52.0029 60.9811 51.9999L55.3322 51.9839Z" fill="white"/>
<path d="M78.8138 51.984C77.3755 51.9948 75.9506 51.705 74.6295 51.1331C72.058 50.0242 70.0076 47.9658 68.901 45.3822C68.3425 44.0537 68.0547 42.626 68.0547 41.1837C68.0547 39.7414 68.3425 38.3137 68.901 36.9852C69.999 34.3907 72.0513 32.3227 74.6295 31.213C75.9506 30.6497 77.3709 30.3594 78.8058 30.3594C80.2408 30.3594 81.6611 30.6497 82.9821 31.213C85.5697 32.3136 87.6291 34.3839 88.7239 36.9852C89.2842 38.3133 89.573 39.7411 89.573 41.1837C89.573 42.6263 89.2842 44.0541 88.7239 45.3822C87.62 47.9741 85.5629 50.0373 82.9821 51.1411C81.6653 51.7077 80.2462 51.9946 78.8138 51.984ZM78.8138 35.7609C78.0842 35.7567 77.3616 35.9038 76.6911 36.193C76.0483 36.4661 75.4637 36.8609 74.9691 37.356C74.4796 37.8504 74.0871 38.4332 73.8123 39.0738C73.525 39.7339 73.3786 40.4472 73.3825 41.1677C73.3783 41.9011 73.5246 42.6276 73.8123 43.3016C74.3581 44.608 75.3917 45.6471 76.6911 46.1957C77.3616 46.4849 78.0842 46.632 78.8138 46.6279C79.5305 46.6318 80.24 46.4846 80.8966 46.1957C82.1889 45.6409 83.2162 44.6032 83.7622 43.3016C84.0499 42.6276 84.1962 41.9011 84.1921 41.1677C84.196 40.4472 84.0495 39.7339 83.7622 39.0738C83.2104 37.7792 82.1844 36.7477 80.8966 36.193C80.24 35.9042 79.5305 35.7569 78.8138 35.7609Z" fill="white"/>
<path d="M103.882 38.3028L98.5015 43.6563H95.705V51.9839H90.3798V40.5141C90.3733 39.1761 90.6387 37.8509 91.1598 36.6197C91.6603 35.4239 92.3865 34.3369 93.2984 33.4188C94.2133 32.5009 95.2939 31.7667 96.4824 31.2556C97.7135 30.7206 99.0416 30.4481 100.383 30.4553C101.591 30.4534 102.79 30.6731 103.92 31.1035C105.046 31.529 106.089 32.1512 107 32.9414L103.45 37.0038C102.613 36.2335 101.518 35.8087 100.383 35.8141C99.5216 35.8036 98.6757 36.0435 97.947 36.505C97.2432 36.9414 96.6715 37.5632 96.294 38.3028H103.88H103.882Z" fill="white"/>
<path d="M73.8734 8.57212C73.5751 7.20215 73.0175 5.90264 72.231 4.7444C71.4125 3.54621 70.3647 2.52406 69.1488 1.73768C67.9329 0.9513 66.5732 0.416481 65.1493 0.164478C62.3721 -0.328042 59.5137 0.295542 57.1893 1.90095C55.9926 2.71704 54.9749 3.771 54.1991 4.9978L48.0965 14.5231C47.7062 15.1435 47.1921 15.6758 46.5867 16.0862C45.3994 16.8934 43.9483 17.2096 42.5351 16.9691C41.8177 16.8422 41.1329 16.572 40.5213 16.1743C39.9097 15.7766 39.3837 15.2595 38.9744 14.6538C38.1742 13.459 37.8599 12.0013 38.0961 10.5807C38.2182 9.85493 38.4893 9.16272 38.8921 8.54811C39.4138 7.71187 40.1597 7.04063 41.044 6.61158C41.9021 6.19314 42.8547 6.00915 43.8061 6.0781L39.1336 13.3468L46.523 11.693L51.5643 3.82682L49.3462 2.39176C48.1339 1.59875 46.7732 1.0632 45.3476 0.81799C42.5705 0.32547 39.712 0.949054 37.3877 2.55447C36.1961 3.37695 35.1795 4.4299 34.3973 5.65181C33.6151 6.87372 33.083 8.24008 32.832 9.67108C32.3432 12.463 32.9634 15.3362 34.5593 17.6733C35.3764 18.8695 36.4223 19.8903 37.6358 20.6762C38.8494 21.462 40.2063 21.9972 41.6277 22.2505C44.4047 22.7384 47.2615 22.1152 49.5876 20.5141C50.7838 19.6962 51.8013 18.6415 52.5779 17.4145L54.1699 14.9392L58.6805 7.88926C59.0725 7.27007 59.5874 6.73885 60.1929 6.32883C61.3805 5.52221 62.831 5.20517 64.2445 5.44326C64.9637 5.56913 65.6505 5.83862 66.2644 6.23583C66.8783 6.63304 67.4067 7.14991 67.8185 7.75589C68.6196 8.95025 68.9323 10.409 68.6915 11.829C68.5674 12.5534 68.2965 13.2443 67.8955 13.8589C67.3731 14.6946 66.6274 15.3657 65.7436 15.7954C64.8855 16.2139 63.9328 16.3979 62.9815 16.3289L67.6381 9.05225L60.2672 10.706L55.2259 18.5749L57.4414 20.0099C58.6534 20.8029 60.0143 21.3376 61.44 21.581C64.2167 22.0714 67.0741 21.449 69.3999 19.8472C70.5917 19.0244 71.6085 17.9711 72.3907 16.7487C73.1729 15.5263 73.7049 14.1594 73.9556 12.7279C74.1927 11.3501 74.1648 9.93936 73.8734 8.57212Z" fill="white"/>
</svg>
