<svg width="144" height="44" viewBox="0 0 144 44" fill="none" xmlns="http://www.w3.org/2000/svg">
<path d="M117.063 0H112.518V5.71989H117.063V0Z" fill="white"/>
<path d="M37.1528 1.82019H32.6082V7.54008H37.1528V1.82019Z" fill="white"/>
<path d="M60.1311 17.1406C60.1291 19.1266 59.316 21.0306 57.8705 22.4349C56.4249 23.8392 54.4649 24.629 52.4206 24.631H37.1567V9.52809H32.6082V29.0536H52.562C55.7742 29.0495 58.8535 27.8079 61.1245 25.601C63.3955 23.3941 64.6726 20.4023 64.6757 17.2818V8.21545H60.1311V17.1406Z" fill="white"/>
<path d="M133.567 1.79346C130.089 1.8516 126.774 3.23459 124.336 5.6445C121.897 8.0544 120.531 11.2983 120.531 14.6775C120.531 18.0567 121.897 21.3006 124.336 23.7105C126.774 26.1204 130.089 27.5034 133.567 27.5616H137.134V23.1467H133.567C131.255 23.1467 129.039 22.2546 127.404 20.6667C125.769 19.0788 124.851 16.9251 124.851 14.6794C124.851 12.4338 125.769 10.2801 127.404 8.69216C129.039 7.10424 131.255 6.21215 133.567 6.21215H144V1.79346H133.567Z" fill="white"/>
<path d="M139.455 28.4201C139.451 31.38 138.239 34.2175 136.084 36.3105C133.93 38.4035 131.009 39.5811 127.962 39.5851H122.212V44H128.21C132.396 43.9959 136.41 42.3785 139.37 39.5027C142.331 36.6268 143.996 32.7275 144 28.6605V8.13525H139.455V28.4201Z" fill="white"/>
<path d="M112.518 23.1467H106.952V16.9918C106.947 12.9693 105.3 9.11286 102.372 6.26811C99.4449 3.42337 95.4755 1.82246 91.3348 1.81641H55.4532C52.2035 1.81842 49.0874 3.07261 46.7884 5.3038C44.4894 7.535 43.1954 10.561 43.1902 13.7179V22.6583H47.7387V13.7026C47.7398 11.7164 48.5525 9.81173 49.9982 8.40722C51.444 7.00271 53.4046 6.21322 55.4492 6.21221H74.4997V27.5807H79.0443V6.21221H89.0291V27.5807H93.5737V6.23892C95.9818 6.43125 98.2276 7.49548 99.8659 9.22067C101.504 10.9459 102.416 13.2061 102.419 15.5533V27.5883H117.074V8.06669H112.518V23.1467Z" fill="white"/>
<path d="M3.21352 1.80423L0 4.92603L10.0322 14.6718L13.2457 11.5501L3.21352 1.80423Z" fill="white"/>
<path d="M25.153 2.91907L1.14941 26.2374L4.36246 29.3626L14.7597 19.2621L25.153 29.3626L28.366 26.2374L17.9727 16.1408L28.366 6.04039L25.153 2.91907Z" fill="white"/>
</svg>
